<svg xmlns="http://www.w3.org/2000/svg" width="33" height="33" viewBox="0 0 33 33">
  <metadata><?xpacket begin="﻿" id="W5M0MpCehiHzreSzNTczkc9d"?>
<x:xmpmeta xmlns:x="adobe:ns:meta/" x:xmptk="Adobe XMP Core 5.6-c142 79.160924, 2017/07/13-01:06:39        ">
   <rdf:RDF xmlns:rdf="http://www.w3.org/1999/02/22-rdf-syntax-ns#">
      <rdf:Description rdf:about=""/>
   </rdf:RDF>
</x:xmpmeta>
                                                                                                    
                                                                                                    
                                                                                                    
                                                                                                    
                                                                                                    
                                                                                                    
                                                                                                    
                                                                                                    
                                                                                                    
                                                                                                    
                                                                                                    
                                                                                                    
                                                                                                    
                                                                                                    
                                                                                                    
                                                                                                    
                                                                                                    
                                                                                                    
                                                                                                    
                                                                                                    
                           
<?xpacket end="w"?></metadata>
<defs>
    <style>
      .cls-1 {
        fill: #1d1d1d;
        fill-rule: evenodd;
      }
    </style>
  </defs>
  <path id="Эллипс_1_копия" data-name="Эллипс 1 копия" class="cls-1" d="M846.5,66A16.5,16.5,0,1,1,830,82.5,16.5,16.5,0,0,1,846.5,66Zm0,2A14.5,14.5,0,1,1,832,82.5,14.5,14.5,0,0,1,846.5,68Zm0,2A12.5,12.5,0,1,1,834,82.5,12.5,12.5,0,0,1,846.5,70Zm0,2A10.5,10.5,0,1,1,836,82.5,10.5,10.5,0,0,1,846.5,72ZM841,69h11V96H841V69Zm-2,3h2V92h-2V72Zm13,0h2V92h-2V72Zm-12,6h13v2H840V78Zm0,7h13v2H840V85Z" transform="translate(-830 -66)"/>
</svg>
