<?xml version="1.0" encoding="UTF-8" standalone="no"?>
<!-- Generator: Adobe Illustrator 22.0.1, SVG Export Plug-In . SVG Version: 6.00 Build 0)  -->
<svg id="Шар_1" xmlns="http://www.w3.org/2000/svg" xml:space="preserve" viewBox="0 0 62 12" version="1.1" y="0px" x="0px" xmlns:xlink="http://www.w3.org/1999/xlink" enable-background="new 0 0 62 12">
<path fill="#111" clip-rule="evenodd" d="m61.4 11.6c-0.3 0.3-0.6 0.4-1 0.4s-0.7-0.1-1-0.4l-3.7-3.6-3.7 3.6c-0.3 0.3-0.6 0.4-1 0.4s-0.7-0.1-1-0.4c-0.5-0.5-0.5-1.4 0-2l3.8-3.6-3.7-3.6c-0.5-0.5-0.5-1.4 0-2 0.5-0.5 1.4-0.5 2 0l9.4 9.2c0.5 0.6 0.5 1.5-0.1 2zm-14.6 0.4c-0.8 0-1.4-0.6-1.4-1.4v-9.2c0-0.8 0.6-1.4 1.4-1.4s1.4 0.6 1.4 1.4v9.2c0 0.8-0.6 1.4-1.4 1.4zm-5.1 0c-0.8 0-1.4-0.6-1.4-1.4v-5.9l-2.3 2.3c-0.5 0.5-1.4 0.5-2 0l-2.3-2.2v5.9c0 0.8-0.6 1.4-1.4 1.4s-1.4-0.6-1.4-1.4v-9.3c0-0.6 0.3-1.1 0.9-1.3 0.5-0.2 1.1-0.1 1.5 0.3l3.7 3.7 3.7-3.6c0.4-0.4 1-0.5 1.5-0.3s0.9 0.7 0.9 1.3v9.2c0 0.7-0.6 1.3-1.4 1.3zm-13.1 0c-0.5 0-1-0.3-1.3-0.8l-3.4-6.7-3.4 6.7c-0.3 0.5-0.7 0.8-1.3 0.8h-6.6c-0.8 0-1.4-0.6-1.4-1.4v-9.2c0-0.8 0.6-1.4 1.4-1.4s1.4 0.6 1.4 1.4v7.8h4.3l4.3-8.4c0.3-0.5 0.8-0.8 1.3-0.8s1 0.3 1.3 0.8l4.7 9.2c0.3 0.7 0.1 1.5-0.6 1.9-0.3 0.1-0.5 0.1-0.7 0.1zm-19.7-9.2h-6.1v3.2h3.9c0.8 0 1.4 0.6 1.4 1.4s-0.6 1.4-1.4 1.4h-3.9v1.8c0 0.8-0.6 1.4-1.4 1.4s-1.4-0.6-1.4-1.4v-9.2c0-0.8 0.6-1.4 1.4-1.4h7.5c0.8 0 1.4 0.6 1.4 1.4s-0.6 1.4-1.4 1.4z" fill-rule="evenodd"/>
<path fill="#00AEEF" clip-rule="evenodd" d="m61.6 2.4l-1.9 1.8c-0.3 0.3-0.6 0.4-1 0.4s-0.7-0.1-1-0.4c-0.5-0.5-0.5-1.4 0-2l1.9-1.8c0.5-0.5 1.4-0.5 2 0 0.5 0.5 0.5 1.4 0 2zm-37.6 8.7c-0.8 0-1.4-0.6-1.4-1.4s0.6-1.4 1.4-1.4 1.4 0.6 1.4 1.4c0.1 0.7-0.6 1.4-1.4 1.4z" fill-rule="evenodd"/>
</svg>
