<svg xmlns="http://www.w3.org/2000/svg" width="200" height="65" viewBox="0 0 200 65">
  <metadata><?xpacket begin="﻿" id="W5M0MpCehiHzreSzNTczkc9d"?>
<x:xmpmeta xmlns:x="adobe:ns:meta/" x:xmptk="Adobe XMP Core 5.6-c138 79.159824, 2016/09/14-01:09:01        ">
   <rdf:RDF xmlns:rdf="http://www.w3.org/1999/02/22-rdf-syntax-ns#">
      <rdf:Description rdf:about=""/>
   </rdf:RDF>
</x:xmpmeta>
                                                                                                    
                                                                                                    
                                                                                                    
                                                                                                    
                                                                                                    
                                                                                                    
                                                                                                    
                                                                                                    
                                                                                                    
                                                                                                    
                                                                                                    
                                                                                                    
                                                                                                    
                                                                                                    
                                                                                                    
                                                                                                    
                                                                                                    
                                                                                                    
                                                                                                    
                                                                                                    
                           
<?xpacket end="w"?></metadata>
<defs>
    <style>
      .cls-1 {
        fill: #0e4194;
        fill-rule: evenodd;
      }
    </style>
  </defs>
  <path id="Фигура_1" data-name="Фигура 1" class="cls-1" d="M40.573,44.5H38.809v5.355H37.241V44.5H35.476V42.986h5.1V44.5Zm0.774,1.923a3.567,3.567,0,1,1,3.567,3.57A3.538,3.538,0,0,1,41.347,46.42Zm5.567,0a2,2,0,1,0-2,2.039A1.952,1.952,0,0,0,46.914,46.42Zm8.126-3.434v6.867H53.471V47.46a3.177,3.177,0,0,1-1.167.215,2.23,2.23,0,0,1-2.461-2.237V42.986h1.569V45.2a0.873,0.873,0,0,0,.931.962,2.667,2.667,0,0,0,1.127-.226V42.986H55.04Zm7.5,0v6.867H60.976V47.125H58.819v2.728H57.251V42.986h1.568v2.629h2.156V42.986h1.568Zm3.591,0v6.867H64.566V42.986h1.569Zm1.307,3.434a3.48,3.48,0,0,1,3.568-3.572,3.423,3.423,0,0,1,2.941,1.589l-1.353.785a1.774,1.774,0,0,0-1.587-.843,2.04,2.04,0,0,0,0,4.08,1.762,1.762,0,0,0,1.587-.843L73.951,48.4a3.4,3.4,0,0,1-2.941,1.59A3.48,3.48,0,0,1,67.442,46.42ZM80.169,44.5H78.405v5.355H76.837V44.5H75.072V42.986h5.1V44.5Zm6.843,3a2.36,2.36,0,0,1-2.4,2.354h-2.6V42.986h1.568v2.158H84.61A2.36,2.36,0,0,1,87.012,47.5Zm-1.569,0a0.838,0.838,0,0,0-.833-0.883H83.581v1.766H84.61A0.838,0.838,0,0,0,85.443,47.5Zm4.716-1.285h6.887v1.412H90.159V46.214Zm15.538,1.7c0,1.286-1.1,2.081-2.539,2.081a2.561,2.561,0,0,1-2.607-1.63l1.352-.774a1.214,1.214,0,0,0,1.255.932,0.78,0.78,0,0,0,.971-0.726,0.79,0.79,0,0,0-.981-0.725h-0.872V45.674h0.677A0.749,0.749,0,0,0,103.884,45a0.656,0.656,0,0,0-.8-0.677A1.119,1.119,0,0,0,102,45.1l-1.342-.775a2.527,2.527,0,0,1,2.43-1.481,2.1,2.1,0,0,1,2.363,2.031,1.718,1.718,0,0,1-.687,1.421A1.761,1.761,0,0,1,105.7,47.91Zm5.616,0.864h-2.549l-0.343,1.079h-1.716l2.333-6.867h2l2.333,6.867h-1.716ZM110.841,47.3l-0.8-2.521-0.8,2.521h1.607Zm9.018,2.551h-1.568V44.5h-2.059v5.355h-1.568V42.986h5.195v6.867Zm1.456-3.433a3.568,3.568,0,1,1,3.568,3.57A3.538,3.538,0,0,1,121.315,46.42Zm5.567,0a2,2,0,1,0-2,2.039A1.952,1.952,0,0,0,126.882,46.42Zm8.129-1.08a2.359,2.359,0,0,1-2.4,2.354h-1.03v2.159h-1.568V42.986h2.6A2.359,2.359,0,0,1,135.011,45.34Zm-1.568,0a0.839,0.839,0,0,0-.833-0.883h-1.03v1.766h1.03A0.84,0.84,0,0,0,133.443,45.34Zm8.114-2.354-1.98,4.846a2.793,2.793,0,0,1-2.881,2.021V48.381a1.249,1.249,0,0,0,1.371-.678l-2.195-4.718h1.569l1.342,3,1.206-3h1.568Zm4.649,6.867-2.195-3.179v3.179h-1.568V42.986h1.568v2.981l2.1-2.981h1.783l-2.313,3.345,2.411,3.521h-1.784Zm7.647-1.079H151.3l-0.343,1.079h-1.715l2.333-6.867h2l2.333,6.867H154.2ZM153.382,47.3l-0.8-2.521-0.8,2.521h1.608Zm13.078,2.551h-1.568V47.6h-0.5l-1.46,2.256h-1.765l1.608-2.452a2.281,2.281,0,0,1-1.411-2.06,2.348,2.348,0,0,1,2.353-2.354h2.744v6.867Zm-1.568-3.629V44.457h-1.176a0.889,0.889,0,0,0,0,1.766h1.176Zm7.555,3.629-2.195-3.179v3.179h-1.569V42.986h1.569v2.981l2.1-2.981h1.783l-2.312,3.345,2.411,3.521h-1.784Zm2.568-3.433a3.568,3.568,0,1,1,3.567,3.57A3.538,3.538,0,0,1,175.015,46.42Zm5.567,0a2,2,0,1,0-2,2.039A1.952,1.952,0,0,0,180.582,46.42Zm2.939,0a3.479,3.479,0,0,1,3.567-3.572,3.421,3.421,0,0,1,2.941,1.589l-1.353.785a1.773,1.773,0,0,0-1.588-.843,2.04,2.04,0,0,0,0,4.08,1.761,1.761,0,0,0,1.588-.843l1.353,0.785a3.4,3.4,0,0,1-2.941,1.59A3.479,3.479,0,0,1,183.521,46.42ZM196.654,44.5h-1.765v5.355H193.32V44.5h-1.764V42.986h5.1V44.5Zm3.259-1.511v6.867h-1.568V42.986h1.568ZM49.607,33.2H41.812l-1.049,3.3H35.517l7.135-21h6.116l7.135,21H50.657Zm-1.439-4.5L45.71,20.987,43.252,28.7h4.917ZM74.49,30.35c0,3.72-3.028,6.15-6.776,6.15H58.9v-21h8.214c3.658,0,6.626,2.369,6.626,6a5.26,5.26,0,0,1-1.829,4.11A5.427,5.427,0,0,1,74.49,30.35ZM63.7,20v3.721h3.417a1.861,1.861,0,0,0,0-3.721H63.7Zm6,9.993a1.9,1.9,0,0,0-1.979-2.011H63.7V32h4.017A1.9,1.9,0,0,0,69.693,29.99Zm22.87-9.873h-5.4V36.5h-4.8V20.117h-5.4V15.5H92.563v4.619ZM94.255,26a10.913,10.913,0,1,1,10.913,10.922A10.824,10.824,0,0,1,94.255,26Zm17.028,0a6.117,6.117,0,1,0-12.232,0A6.117,6.117,0,1,0,111.283,26Zm23.983-3.3a7.214,7.214,0,0,1-7.345,7.2h-3.148v6.6h-4.8v-21h7.945A7.214,7.214,0,0,1,135.266,22.7Zm-4.8,0a2.565,2.565,0,0,0-2.548-2.7h-3.148v5.4h3.148A2.565,2.565,0,0,0,130.469,22.7Zm20.579,2.4-8.095,11.4h-3.6v-21h4.8V26.9l8.094-11.4h3.6v21h-4.8V25.1Zm24.177-4.981h-5.4V36.5h-4.8V20.117h-5.4V15.5h15.59v4.619ZM200,36.5h-4.8V24.288L189.777,33.2h-0.54l-5.426-8.912V36.5h-4.8v-21h4.8l5.7,9.33,5.7-9.33H200v21ZM20.525,10.466L6.173,3.592,7.89,0,22.242,6.874ZM7.89,65L6.173,61.407l14.354-6.874,1.717,3.591ZM23.16,34.491H0V30.508H23.16v3.982ZM11.432,27.857L0.284,26.618l0.44-3.959L11.872,23.9Zm0.882-6.6L1.372,18.793l0.875-3.885,10.941,2.47Zm1.619-6.495-10.6-3.675,1.3-3.761,10.6,3.675ZM0.724,42.34L0.284,38.384,11.43,37.142l0.44,3.958Zm1.524,7.752L1.372,46.208l10.94-2.47,0.875,3.884Zm2.39,7.577-1.3-3.763,10.6-3.673,1.3,3.761Z"/>
</svg>
