<svg xmlns="http://www.w3.org/2000/svg" width="200" height="65" viewBox="0 0 200 65">
  <metadata><?xpacket begin="﻿" id="W5M0MpCehiHzreSzNTczkc9d"?>
<x:xmpmeta xmlns:x="adobe:ns:meta/" x:xmptk="Adobe XMP Core 5.6-c138 79.159824, 2016/09/14-01:09:01        ">
   <rdf:RDF xmlns:rdf="http://www.w3.org/1999/02/22-rdf-syntax-ns#">
      <rdf:Description rdf:about=""/>
   </rdf:RDF>
</x:xmpmeta>
                                                                                                    
                                                                                                    
                                                                                                    
                                                                                                    
                                                                                                    
                                                                                                    
                                                                                                    
                                                                                                    
                                                                                                    
                                                                                                    
                                                                                                    
                                                                                                    
                                                                                                    
                                                                                                    
                                                                                                    
                                                                                                    
                                                                                                    
                                                                                                    
                                                                                                    
                                                                                                    
                           
<?xpacket end="w"?></metadata>
<defs>
    <style>
      .cls-1 {
        fill: #fff;
        fill-rule: evenodd;
      }
    </style>
  </defs>
  <path id="Фигура_1" data-name="Фигура 1" class="cls-1" d="M280.573,94.5h-1.764v5.355h-1.568V94.5h-1.765V92.986h5.1V94.5Zm0.774,1.923a3.568,3.568,0,1,1,3.567,3.57A3.538,3.538,0,0,1,281.347,96.42Zm5.567,0a2,2,0,1,0-2,2.039A1.952,1.952,0,0,0,286.914,96.42Zm8.126-3.434v6.867h-1.569V97.46a3.179,3.179,0,0,1-1.167.215,2.23,2.23,0,0,1-2.46-2.236V92.986h1.569V95.2a0.873,0.873,0,0,0,.931.962,2.671,2.671,0,0,0,1.127-.226V92.986h1.569Zm7.5,0v6.867h-1.568V97.125h-2.157v2.727h-1.568V92.986h1.568v2.629h2.157V92.986h1.568Zm3.591,0v6.867h-1.569V92.986h1.569Zm1.307,3.434a3.48,3.48,0,0,1,3.568-3.571,3.422,3.422,0,0,1,2.941,1.589l-1.353.785a1.774,1.774,0,0,0-1.588-.843,2.04,2.04,0,0,0,0,4.08,1.763,1.763,0,0,0,1.588-.843l1.353,0.785a3.4,3.4,0,0,1-2.941,1.59A3.48,3.48,0,0,1,307.442,96.42ZM320.169,94.5H318.4v5.355h-1.568V94.5h-1.765V92.986h5.1V94.5Zm6.843,3a2.359,2.359,0,0,1-2.4,2.354h-2.6V92.986h1.568v2.158h1.029A2.359,2.359,0,0,1,327.012,97.5Zm-1.569,0a0.838,0.838,0,0,0-.833-0.883h-1.029v1.765h1.029A0.838,0.838,0,0,0,325.443,97.5Zm4.716-1.285h6.887v1.412h-6.887V96.214Zm15.538,1.7c0,1.286-1.1,2.08-2.539,2.08a2.561,2.561,0,0,1-2.607-1.629l1.352-.774a1.214,1.214,0,0,0,1.255.932,0.78,0.78,0,0,0,.971-0.726,0.789,0.789,0,0,0-.981-0.725h-0.872V95.674h0.677A0.749,0.749,0,0,0,343.884,95a0.656,0.656,0,0,0-.8-0.677A1.12,1.12,0,0,0,342,95.1l-1.342-.775a2.527,2.527,0,0,1,2.43-1.481,2.1,2.1,0,0,1,2.363,2.031,1.718,1.718,0,0,1-.687,1.421A1.761,1.761,0,0,1,345.7,97.91Zm5.616,0.864h-2.549l-0.343,1.079h-1.716l2.333-6.867h2l2.333,6.867h-1.716ZM350.841,97.3l-0.8-2.521-0.8,2.521h1.607Zm9.018,2.551h-1.568V94.5h-2.059v5.355h-1.568V92.986h5.195v6.867Zm1.456-3.433a3.568,3.568,0,1,1,3.568,3.57A3.538,3.538,0,0,1,361.315,96.42Zm5.567,0a2,2,0,1,0-2,2.039A1.952,1.952,0,0,0,366.882,96.42Zm8.129-1.08a2.359,2.359,0,0,1-2.4,2.354h-1.03v2.158h-1.568V92.986h2.6A2.359,2.359,0,0,1,375.011,95.341Zm-1.568,0a0.839,0.839,0,0,0-.833-0.883h-1.03v1.766h1.03A0.839,0.839,0,0,0,373.443,95.341Zm8.114-2.354-1.98,4.846a2.793,2.793,0,0,1-2.881,2.021V98.381a1.249,1.249,0,0,0,1.371-.677l-2.195-4.718h1.569l1.342,3,1.206-3h1.568Zm4.649,6.867-2.195-3.179v3.179h-1.568V92.986h1.568v2.981l2.1-2.981h1.783l-2.313,3.345,2.411,3.521h-1.784Zm7.647-1.079H391.3l-0.343,1.079h-1.715l2.333-6.867h2l2.333,6.867H394.2ZM393.382,97.3l-0.8-2.521-0.8,2.521h1.608Zm13.078,2.551h-1.568V97.6h-0.5l-1.46,2.256h-1.765l1.608-2.452a2.281,2.281,0,0,1-1.411-2.06,2.348,2.348,0,0,1,2.353-2.354h2.744v6.867Zm-1.568-3.629V94.458h-1.176a0.889,0.889,0,0,0,0,1.766h1.176Zm7.555,3.629-2.195-3.179v3.179h-1.569V92.986h1.569v2.981l2.1-2.981h1.783l-2.312,3.345,2.411,3.521h-1.784Zm2.568-3.433a3.568,3.568,0,1,1,3.567,3.57A3.538,3.538,0,0,1,415.015,96.42Zm5.567,0a2,2,0,1,0-2,2.039A1.952,1.952,0,0,0,420.582,96.42Zm2.939,0a3.479,3.479,0,0,1,3.567-3.571,3.421,3.421,0,0,1,2.941,1.589l-1.353.785a1.773,1.773,0,0,0-1.588-.843,2.04,2.04,0,0,0,0,4.08,1.761,1.761,0,0,0,1.588-.843l1.353,0.785a3.4,3.4,0,0,1-2.941,1.59A3.479,3.479,0,0,1,423.521,96.42ZM436.654,94.5h-1.765v5.355H433.32V94.5h-1.764V92.986h5.1V94.5Zm3.259-1.511v6.867h-1.568V92.986h1.568ZM289.607,83.2h-7.8l-1.049,3.3h-5.246l7.135-21h6.116l7.135,21h-5.246Zm-1.439-4.5-2.458-7.713L283.252,78.7h4.916Zm26.322,1.65c0,3.72-3.028,6.15-6.776,6.15H298.9v-21h8.214c3.658,0,6.626,2.369,6.626,6a5.261,5.261,0,0,1-1.829,4.11A5.429,5.429,0,0,1,314.49,80.351ZM303.7,70v3.721h3.417a1.861,1.861,0,0,0,0-3.721H303.7Zm6,9.993a1.9,1.9,0,0,0-1.979-2.011H303.7V82h4.017A1.9,1.9,0,0,0,309.693,79.991Zm22.87-9.873h-5.4V86.5h-4.8V70.118h-5.4V65.5h15.589v4.619ZM334.255,76a10.913,10.913,0,1,1,10.913,10.922A10.824,10.824,0,0,1,334.255,76Zm17.028,0a6.117,6.117,0,1,0-6.115,6.241A5.971,5.971,0,0,0,351.283,76Zm23.983-3.3a7.214,7.214,0,0,1-7.345,7.2h-3.148v6.6h-4.8v-21h7.945A7.214,7.214,0,0,1,375.266,72.7Zm-4.8,0a2.566,2.566,0,0,0-2.548-2.7h-3.148v5.4h3.148A2.565,2.565,0,0,0,370.469,72.7Zm20.579,2.4-8.1,11.4h-3.6v-21h4.8V76.9l8.094-11.4h3.6v21h-4.8V75.1Zm24.177-4.981h-5.4V86.5h-4.8V70.118h-5.4V65.5h15.59v4.619ZM440,86.5h-4.8V74.289L429.777,83.2h-0.54l-5.426-8.912V86.5h-4.8v-21h4.8l5.7,9.33,5.7-9.33H440v21ZM260.525,60.466l-14.352-6.874L247.89,50l14.352,6.875ZM247.89,115l-1.717-3.591,14.353-6.875,1.717,3.591Zm15.27-30.508H240V80.509H263.16v3.982Zm-11.728-6.633-11.148-1.239,0.44-3.959,11.147,1.24Zm0.882-6.6-10.942-2.469,0.875-3.885,10.942,2.47Zm1.618-6.495-10.6-3.675,1.3-3.762,10.6,3.675ZM240.724,92.34l-0.44-3.956,11.146-1.242,0.441,3.958Zm1.523,7.753-0.875-3.885,10.94-2.47,0.875,3.884Zm2.39,7.576-1.3-3.762,10.6-3.674,1.3,3.761Z" transform="translate(-240 -50)"/>
</svg>
